<?xml version="1.0" encoding="UTF-8"?>
<svg version="1.1" xmlns="http://www.w3.org/2000/svg" width="28" height="33">
<path d="M0 0 C4.77525364 2.38762682 7.64565649 5.19713925 10 10 C10.09854561 15.42000868 8.37506956 18.37250236 4.9609375 22.32421875 C3.66910955 24.57704066 4.34709264 25.56731553 5 28 C3.03280134 30.79215293 1.4613053 32.62952823 -1.94140625 33.4921875 C-5.99686639 33.75383009 -7.677089 33.23065071 -11.0625 30.8125 C-11.701875 29.884375 -12.34125 28.95625 -13 28 C-12.835 27.195625 -12.67 26.39125 -12.5 25.5625 C-12.2525 24.2940625 -12.2525 24.2940625 -12 23 C-13.22975888 21.51134452 -14.46576236 20.02584784 -15.76953125 18.6015625 C-17.91569005 15.80814946 -18.06154774 13.44667328 -18 10 C-14.32193396 2.49674527 -8.32740625 -1.63217162 0 0 Z " fill="#050607" transform="translate(18,0)"/>
<path d="M0 0 C2.5625 2.1875 2.5625 2.1875 3.5625 5.1875 C2.2425 6.1775 0.9225 7.1675 -0.4375 8.1875 C0.62796953 10.31843906 1.85409719 11.55337557 3.5625 13.1875 C-2.18168605 19.08284884 -2.18168605 19.08284884 -7.1875 19.5 C-11.56707399 19.4521358 -14.08049084 18.05323953 -17.4375 15.1875 C-17.7675 14.1975 -18.0975 13.2075 -18.4375 12.1875 C-17.4475 11.5275 -16.4575 10.8675 -15.4375 10.1875 C-15.4375 11.1775 -15.4375 12.1675 -15.4375 13.1875 C-14.7775 13.1875 -14.1175 13.1875 -13.4375 13.1875 C-13.1075 12.5275 -12.7775 11.8675 -12.4375 11.1875 C-13.0975 10.8575 -13.7575 10.5275 -14.4375 10.1875 C-14.4375 9.1975 -14.4375 8.2075 -14.4375 7.1875 C-15.7575 6.5275 -17.0775 5.8675 -18.4375 5.1875 C-17.11520588 2.67514116 -16.01048801 0.63315734 -13.75 -1.125 C-8.48187402 -2.69119962 -4.76903473 -2.51458195 0 0 Z " fill="#526783" transform="translate(21.4375,3.8125)"/>
<path d="M0 0 C4.71897044 0.89277819 7.41789856 3.68411373 10.4609375 7.1953125 C12.46040042 11.27421685 12.31613509 13.04847352 11.0234375 17.3828125 C9.7749117 19.26947371 8.4632606 20.99528245 6.984375 22.70703125 C5.69254705 24.95985316 6.37053014 25.95012803 7.0234375 28.3828125 C5.05623884 31.17496543 3.4847428 33.01234073 0.08203125 33.875 C-4.15712906 34.14849421 -5.60618279 33.69146226 -8.9765625 30.8828125 C-9.6365625 30.0578125 -10.2965625 29.2328125 -10.9765625 28.3828125 C-10.4815625 26.8978125 -10.4815625 26.8978125 -9.9765625 25.3828125 C-9.6465625 26.3728125 -9.3165625 27.3628125 -8.9765625 28.3828125 C-8.3165625 28.3828125 -7.6565625 28.3828125 -6.9765625 28.3828125 C-6.6465625 27.7228125 -6.3165625 27.0628125 -5.9765625 26.3828125 C-5.8528125 27.0221875 -5.7290625 27.6615625 -5.6015625 28.3203125 C-5.3953125 29.0009375 -5.1890625 29.6815625 -4.9765625 30.3828125 C-4.3165625 30.7128125 -3.6565625 31.0428125 -2.9765625 31.3828125 C-2.9765625 30.3928125 -2.9765625 29.4028125 -2.9765625 28.3828125 C-2.3165625 28.3828125 -1.6565625 28.3828125 -0.9765625 28.3828125 C-0.9765625 29.3728125 -0.9765625 30.3628125 -0.9765625 31.3828125 C1.53426864 30.12739693 1.89469196 28.88217762 3.0234375 26.3828125 C3.0234375 27.0428125 3.0234375 27.7028125 3.0234375 28.3828125 C3.6834375 28.3828125 4.3434375 28.3828125 5.0234375 28.3828125 C4.2470443 25.3082769 4.2470443 25.3082769 2.0234375 23.3828125 C3.23 22.485625 3.23 22.485625 4.4609375 21.5703125 C7.24671734 19.57333974 7.24671734 19.57333974 8.0234375 16.3828125 C6.7034375 15.7228125 5.3834375 15.0628125 4.0234375 14.3828125 C4.3359375 12.4453125 4.3359375 12.4453125 5.0234375 10.3828125 C6.0134375 10.0528125 7.0034375 9.7228125 8.0234375 9.3828125 C7.10830431 7.09497953 6.36859104 5.64831522 4.3984375 4.1328125 C-0.21680657 2.675367 -5.38049292 2.85078931 -9.9765625 4.3828125 C-7.11465263 0.56693267 -4.78110265 -0.26660424 0 0 Z " fill="#06080A" transform="translate(15.9765625,-0.3828125)"/>
<path d="M0 0 C0.66 0.66 1.32 1.32 2 2 C1.67 2.66 1.34 3.32 1 4 C3.16666667 3.16666667 3.16666667 3.16666667 4 1 C7.16015625 0.5859375 7.16015625 0.5859375 11.0625 0.375 C12.35285156 0.30023438 13.64320312 0.22546875 14.97265625 0.1484375 C15.97167969 0.09945313 16.97070312 0.05046875 18 0 C18.66 0.99 19.32 1.98 20 3 C14.25581395 8.89534884 14.25581395 8.89534884 9.25 9.3125 C4.87042601 9.2646358 2.35700916 7.86573953 -1 5 C-1.33 4.01 -1.66 3.02 -2 2 C-1.34 1.34 -0.68 0.68 0 0 Z " fill="#2F3A4A" transform="translate(5,14)"/>
<path d="M0 0 C0 3 0 3 -1.5625 4.9375 C-2.036875 5.618125 -2.51125 6.29875 -3 7 C-2.79375 7.639375 -2.5875 8.27875 -2.375 8.9375 C-2.25125 9.618125 -2.1275 10.29875 -2 11 C-3.96719866 13.79215293 -5.5386947 15.62952823 -8.94140625 16.4921875 C-13.18056656 16.76568171 -14.62962029 16.30864976 -18 13.5 C-18.66 12.675 -19.32 11.85 -20 11 C-19.67 10.01 -19.34 9.02 -19 8 C-18.67 8.99 -18.34 9.98 -18 11 C-17.34 11 -16.68 11 -16 11 C-15.67 10.34 -15.34 9.68 -15 9 C-14.87625 9.639375 -14.7525 10.27875 -14.625 10.9375 C-14.41875 11.618125 -14.2125 12.29875 -14 13 C-13.34 13.33 -12.68 13.66 -12 14 C-12 13.01 -12 12.02 -12 11 C-11.34 11 -10.68 11 -10 11 C-10 11.99 -10 12.98 -10 14 C-7.48916886 12.74458443 -7.12874554 11.49936512 -6 9 C-6 9.66 -6 10.32 -6 11 C-5.34 11 -4.68 11 -4 11 C-4.7763932 7.9254644 -4.7763932 7.9254644 -7 6 C-4.69 4.02 -2.38 2.04 0 0 Z " fill="#000000" transform="translate(25,17)"/>
<path d="M0 0 C3.96 0 7.92 0 12 0 C12.33 1.32 12.66 2.64 13 4 C12.34 4 11.68 4 11 4 C10.01 5.485 10.01 5.485 9 7 C8.34 7 7.68 7 7 7 C7 6.01 7 5.02 7 4 C6.34 4 5.68 4 5 4 C5 4.99 5 5.98 5 7 C4.01 6.67 3.02 6.34 2 6 C1.67 5.34 1.34 4.68 1 4 C0.34 4 -0.32 4 -1 4 C-0.67 2.68 -0.34 1.36 0 0 Z " fill="#536885" transform="translate(8,24)"/>
<path d="M0 0 C7.50769231 -0.36923077 7.50769231 -0.36923077 10 1.5 C10.495 2.2425 10.495 2.2425 11 3 C8.47524538 4.26237731 6.68799534 4.09856404 3.875 4.0625 C2.96492187 4.05347656 2.05484375 4.04445313 1.1171875 4.03515625 C0.41851562 4.02355469 -0.28015625 4.01195312 -1 4 C-0.67 2.68 -0.34 1.36 0 0 Z " fill="#D8D8D8" transform="translate(9,15)"/>
<path d="M0 0 C3.96 0 7.92 0 12 0 C12.33 1.32 12.66 2.64 13 4 C12.484375 3.835 11.96875 3.67 11.4375 3.5 C7.12290849 2.61495559 3.17873852 2.60708716 -1 4 C-0.67 2.68 -0.34 1.36 0 0 Z " fill="#4B5C76" transform="translate(8,24)"/>
<path d="M0 0 C3.3 0 6.6 0 10 0 C10 0.99 10 1.98 10 3 C2.25 3.125 2.25 3.125 0 2 C0 1.34 0 0.68 0 0 Z " fill="#4D607B" transform="translate(8,20)"/>
<path d="M0 0 C0.66 0.66 1.32 1.32 2 2 C1.67 2.66 1.34 3.32 1 4 C4.96 4.33 8.92 4.66 13 5 C13 5.33 13 5.66 13 6 C7.06 6.495 7.06 6.495 1 7 C0.01 5.35 -0.98 3.7 -2 2 C-1.34 1.34 -0.68 0.68 0 0 Z " fill="#27303D" transform="translate(5,14)"/>
</svg>
