<?xml version="1.0" encoding="UTF-8"?>
<svg version="1.1" xmlns="http://www.w3.org/2000/svg" width="28" height="33">
<path d="M0 0 C4.77525364 2.38762682 7.64565649 5.19713925 10 10 C10.09854561 15.42000868 8.37506956 18.37250236 4.9609375 22.32421875 C3.66910955 24.57704066 4.34709264 25.56731553 5 28 C3.03280134 30.79215293 1.4613053 32.62952823 -1.94140625 33.4921875 C-5.99686639 33.75383009 -7.677089 33.23065071 -11.0625 30.8125 C-11.701875 29.884375 -12.34125 28.95625 -13 28 C-12.835 27.195625 -12.67 26.39125 -12.5 25.5625 C-12.2525 24.2940625 -12.2525 24.2940625 -12 23 C-13.22975888 21.51134452 -14.46576236 20.02584784 -15.76953125 18.6015625 C-17.91569005 15.80814946 -18.06154774 13.44667328 -18 10 C-14.32193396 2.49674527 -8.32740625 -1.63217162 0 0 Z " fill="#080000" transform="translate(18,0)"/>
<path d="M0 0 C3.54721832 1.0641655 6.94779323 2.33511618 10.3125 3.875 C10.98925781 4.18179687 11.66601562 4.48859375 12.36328125 4.8046875 C14 6 14 6 14.73046875 8.1328125 C14.81941406 8.74898437 14.90835937 9.36515625 15 10 C16.32 10 17.64 10 19 10 C19.33 9.34 19.66 8.68 20 8 C20.66 8.33 21.32 8.66 22 9 C17.76744186 15.95348837 17.76744186 15.95348837 14 17 C9.15921834 17.46846274 6.96610332 17.50094246 2.625 15.25 C-1.2460733 11.93193717 -1.2460733 11.93193717 -2 9 C-1.47916667 2.95833333 -1.47916667 2.95833333 0 0 Z " fill="#D0AFAE" transform="translate(4,6)"/>
<path d="M0 0 C3.88174795 2.0127582 6.62514936 3.737963 8 8 C8 8.99 8 9.98 8 11 C0.63010534 9.305613 -5.57735897 7.01216835 -12 3 C-8.1565148 -0.21998649 -4.92541763 -0.86194809 0 0 Z " fill="#DCBBBA" transform="translate(18,2)"/>
<path d="M0 0 C0.66 0.33 1.32 0.66 2 1 C-2.23255814 7.95348837 -2.23255814 7.95348837 -6 9 C-11.261257 9.41756008 -14.78292508 9.55815697 -19 6 C-19 5.01 -19 4.02 -19 3 C-17.02 2.34 -15.04 1.68 -13 1 C-13 1.99 -13 2.98 -13 4 C-11.02 4 -9.04 4 -7 4 C-7 3.34 -7 2.68 -7 2 C-5.02 2 -3.04 2 -1 2 C-0.67 1.34 -0.34 0.68 0 0 Z " fill="#CFBABA" transform="translate(24,14)"/>
<path d="M0 0 C0 3 0 3 -1.5625 4.9375 C-2.036875 5.618125 -2.51125 6.29875 -3 7 C-2.79375 7.639375 -2.5875 8.27875 -2.375 8.9375 C-2.25125 9.618125 -2.1275 10.29875 -2 11 C-3.96719866 13.79215293 -5.5386947 15.62952823 -8.94140625 16.4921875 C-13.18056656 16.76568171 -14.62962029 16.30864976 -18 13.5 C-18.66 12.675 -19.32 11.85 -20 11 C-19.67 10.01 -19.34 9.02 -19 8 C-18.67 8.99 -18.34 9.98 -18 11 C-17.34 11 -16.68 11 -16 11 C-15.67 10.34 -15.34 9.68 -15 9 C-14.87625 9.639375 -14.7525 10.27875 -14.625 10.9375 C-14.41875 11.618125 -14.2125 12.29875 -14 13 C-13.34 13.33 -12.68 13.66 -12 14 C-12 13.01 -12 12.02 -12 11 C-11.34 11 -10.68 11 -10 11 C-10 11.99 -10 12.98 -10 14 C-7.48916886 12.74458443 -7.12874554 11.49936512 -6 9 C-6 9.66 -6 10.32 -6 11 C-5.34 11 -4.68 11 -4 11 C-4.7763932 7.9254644 -4.7763932 7.9254644 -7 6 C-4.69 4.02 -2.38 2.04 0 0 Z " fill="#080000" transform="translate(25,17)"/>
<path d="M0 0 C3.96 0 7.92 0 12 0 C12.33 1.32 12.66 2.64 13 4 C12.34 4 11.68 4 11 4 C10.01 5.485 10.01 5.485 9 7 C8.34 7 7.68 7 7 7 C7 6.01 7 5.02 7 4 C6.34 4 5.68 4 5 4 C5 4.99 5 5.98 5 7 C4.01 6.67 3.02 6.34 2 6 C1.67 5.34 1.34 4.68 1 4 C0.34 4 -0.32 4 -1 4 C-0.67 2.68 -0.34 1.36 0 0 Z " fill="#D0A690" transform="translate(8,24)"/>
<path d="M0 0 C1.65 0.33 3.3 0.66 5 1 C4.67 2.65 4.34 4.3 4 6 C2.35 5.67 0.7 5.34 -1 5 C-0.67 3.35 -0.34 1.7 0 0 Z " fill="#261F1F" transform="translate(5,11)"/>
<path d="M0 0 C1.65 0.33 3.3 0.66 5 1 C5 1.99 5 2.98 5 4 C3.02 4 1.04 4 -1 4 C-0.67 2.68 -0.34 1.36 0 0 Z " fill="#342E2E" transform="translate(12,14)"/>
<path d="M0 0 C1.98 0 3.96 0 6 0 C6 0.66 6 1.32 6 2 C4.68 2 3.36 2 2 2 C2 2.99 2 3.98 2 5 C1.01 4.67 0.02 4.34 -1 4 C-0.67 2.68 -0.34 1.36 0 0 Z " fill="#E2C4C3" transform="translate(11,26)"/>
<path d="M0 0 C0.66 0.33 1.32 0.66 2 1 C0.7260411 3.03833424 -0.61061923 5.03852126 -2 7 C-2.66 7 -3.32 7 -4 7 C-4 5.68 -4 4.36 -4 3 C-3.01 2.67 -2.02 2.34 -1 2 C-0.67 1.34 -0.34 0.68 0 0 Z " fill="#97A0A2" transform="translate(24,14)"/>
</svg>
