<?xml version="1.0" encoding="UTF-8"?>
<svg version="1.1" xmlns="http://www.w3.org/2000/svg" width="30" height="34">
<path d="M0 0 C4.10222213 1.75601338 7.17270518 3.99173444 10 7.4375 C11.30387659 10.77868375 11.69936794 12.4332235 11 16 C9.26264218 18.14739117 7.43283747 20.0669444 5.43359375 21.97265625 C3.68498962 23.94535349 3.68498962 23.94535349 4.40625 26.5703125 C4.70015625 27.77300781 4.70015625 27.77300781 5 29 C2.35539519 32.83894247 0.71842185 33.86095061 -3.875 34.75 C-8.3329789 34.44719389 -10.58574471 32.32410728 -13.45703125 29.05859375 C-17.84971554 23.19797446 -19.95183726 18.37673874 -19 11 C-14.93249831 3.16629304 -8.95585719 -1.3959217 0 0 Z " fill="#000000" transform="translate(19,0)"/>
<path d="M0 0 C3 2 3 2 3.8125 5.3125 C4.00106512 9.02094735 3.54994182 10.71777026 2 14 C2 14.99 2 15.98 2 17 C1.6579878 19.65059453 0.97654574 21.03377414 -0.5625 23.25 C-4.19520359 25.85809488 -6.58363744 25.42738993 -11 25 C-14.27250775 21.72749225 -13.81498267 17.68544259 -14.1015625 13.21875 C-13.96100484 8.76415333 -13.11670605 7.11670605 -10 4 C-9.01 3.67 -8.02 3.34 -7 3 C-7 4.32 -7 5.64 -7 7 C-4.09197539 4.78071806 -2.04687238 3.07030857 0 0 Z " fill="#715F5F" transform="translate(22,9)"/>
<path d="M0 0 C2 3 2 3 1.875 6 C0.88530089 9.39325408 -0.00260244 10.25957561 -3 12 C-3 10.68 -3 9.36 -3 8 C-4.65 8.66 -6.3 9.32 -8 10 C-8 9.34 -8 8.68 -8 8 C-11.24201565 14.07877934 -11.33278764 19.18401613 -11 26 C-14.875 22.25 -14.875 22.25 -16 20 C-15.87890625 17.87109375 -15.87890625 17.87109375 -15.5625 15.4375 C-15.46066406 14.63183594 -15.35882813 13.82617188 -15.25390625 12.99609375 C-15.17011719 12.33738281 -15.08632812 11.67867187 -15 11 C-14.94729537 9.63106761 -14.94729537 9.63106761 -16 7 C-11.59656867 0.31330798 -7.6496721 -0.61690904 0 0 Z " fill="#2E2E2E" transform="translate(19,2)"/>
<path d="M0 0 C0 8.56 0 8.56 -2.5625 12.25 C-6.19520359 14.85809488 -8.58363744 14.42738993 -13 14 C-15.49505962 11.50494038 -15.35948376 10.32671112 -15.625 6.875 C-15.69976562 5.96492188 -15.77453125 5.05484375 -15.8515625 4.1171875 C-15.90054687 3.41851563 -15.94953125 2.71984375 -16 2 C-15.01 2.33 -14.02 2.66 -13 3 C-7.5704369 3.35029439 -4.49997019 3.37497764 0 0 Z " fill="#080000" transform="translate(24,20)"/>
<path d="M0 0 C4.10072531 1.76894033 7.16921516 3.98748098 10 7.4375 C11.17394956 10.44574574 11.22340438 12.79787055 11 16 C10.01 16.33 9.02 16.66 8 17 C7.731875 15.906875 7.46375 14.81375 7.1875 13.6875 C6.08641352 10.26833673 5.57525074 9.22408019 3 7 C3 6.34 3 5.68 3 5 C0.03 4.505 0.03 4.505 -3 4 C-3 3.67 -3 3.34 -3 3 C-7.4571874 3.26218749 -9.51522698 3.57711289 -12.9375 6.5625 C-13.618125 7.366875 -14.29875 8.17125 -15 9 C-14.67 9.33 -14.34 9.66 -14 10 C-14 10.99 -14 11.98 -14 13 C-14.66 13 -15.32 13 -16 13 C-16.33 13.66 -16.66 14.32 -17 15 C-17.875 12.4375 -17.875 12.4375 -18 9 C-13.86464819 2.08866807 -8.18213131 -1.44999795 0 0 Z " fill="#020202" transform="translate(19,0)"/>
<path d="M0 0 C-1 3 -1 3 -2.5625 4.1875 C-6.20002371 5.4000079 -9.16048521 5.24377872 -13 5 C-13.99 4.34 -14.98 3.68 -16 3 C-16 2.01 -16 1.02 -16 0 C-10.75881575 -1.74706142 -5.31166864 -1.32791716 0 0 Z " fill="#CFBABA" transform="translate(24,19)"/>
<path d="M0 0 C3.96 0 7.92 0 12 0 C12.33 1.32 12.66 2.64 13 4 C12.34 4 11.68 4 11 4 C10.01 5.485 10.01 5.485 9 7 C8.34 7 7.68 7 7 7 C7 6.01 7 5.02 7 4 C6.34 4 5.68 4 5 4 C5 4.99 5 5.98 5 7 C2 6 2 6 0 4 C0 2.68 0 1.36 0 0 Z " fill="#E0C0BF" transform="translate(9,25)"/>
<path d="M0 0 C0.99 0.66 1.98 1.32 3 2 C3.1875 5.125 3.1875 5.125 3 8 C1.35 8.33 -0.3 8.66 -2 9 C-2.6875 6.75 -2.6875 6.75 -3 4 C-1.5625 1.6875 -1.5625 1.6875 0 0 Z " fill="#3F3130" transform="translate(22,9)"/>
<path d="M0 0 C0.33 0.66 0.66 1.32 1 2 C1.99 2 2.98 2 4 2 C4.33 5.3 4.66 8.6 5 12 C0.02368421 7.18421053 0.02368421 7.18421053 -0.0625 2.875 C-0.041875 1.92625 -0.02125 0.9775 0 0 Z " fill="#1F1F1F" transform="translate(3,16)"/>
<path d="M0 0 C3.65316671 1.24976756 4.78065836 1.67098753 7 5 C7.25760279 7.69452521 7.08900053 10.28548375 7 13 C6.67 13 6.34 13 6 13 C5.62875 11.4221875 5.62875 11.4221875 5.25 9.8125 C4.23308636 6.17961288 2.5042213 3.83811747 0 1 C0 0.67 0 0.34 0 0 Z " fill="#292929" transform="translate(21,4)"/>
<path d="M0 0 C3.96 0 7.92 0 12 0 C12.33 1.32 12.66 2.64 13 4 C12.484375 3.835 11.96875 3.67 11.4375 3.5 C7.61349155 2.71558801 3.55708573 2.22145713 0 4 C0 2.68 0 1.36 0 0 Z " fill="#D7ACAB" transform="translate(9,25)"/>
</svg>
