<?xml version="1.0" encoding="UTF-8"?>
<svg version="1.1" xmlns="http://www.w3.org/2000/svg" width="28" height="38">
<path d="M0 0 C3.34192692 0.24453124 4.60543557 0.60543557 7 3 C7.37890625 5.13671875 7.37890625 5.13671875 7.5625 7.6875 C7.79802909 10.83543683 8.14039782 13.64798995 8.8125 16.75 C9.06031456 21.04545231 7.63009495 22.69359491 5 26 C4.34 26.99 3.68 27.98 3 29 C3.226875 29.61875 3.45375 30.2375 3.6875 30.875 C4 33 4 33 2.0625 35.75 C-1.32808086 38.241039 -2.96390525 38.76022451 -7.05859375 38.48828125 C-10.50246176 37.62211726 -12.03700872 35.84950346 -14 33 C-13.835 32.195625 -13.67 31.39125 -13.5 30.5625 C-13.2525 29.2940625 -13.2525 29.2940625 -13 28 C-14.22975888 26.51134452 -15.46576236 25.02584784 -16.76953125 23.6015625 C-18.91569005 20.80814946 -19.06154774 18.44667328 -19 15 C-16.62065371 10.14613358 -13.67673186 7.61896984 -9 5 C-7 4.33333333 -5 3.66666667 -3 3 C-2.484375 2.443125 -1.96875 1.88625 -1.4375 1.3125 C-0.963125 0.879375 -0.48875 0.44625 0 0 Z " fill="#C8B2B2" transform="translate(19,0)"/>
<path d="M0 0 C3.4375 1.5625 3.4375 1.5625 6 4 C6.875 7.75 6.875 7.75 7 11 C4.03 10.505 4.03 10.505 1 10 C0.34 11.32 -0.32 12.64 -1 14 C-1.78375 13.835 -2.5675 13.67 -3.375 13.5 C-5.88208039 12.9376293 -5.88208039 12.9376293 -8 13 C-8.33 12.01 -8.66 11.02 -9 10 C-10.98 10.33 -12.96 10.66 -15 11 C-14.83212371 6.63521657 -14.66369248 4.63131724 -11.4375 1.5625 C-7.34547546 -0.29751116 -4.41021651 -0.85047913 0 0 Z " fill="#E0C1C0" transform="translate(18,7)"/>
<path d="M0 0 C3.34192692 0.24453124 4.60543557 0.60543557 7 3 C7.37890625 5.13671875 7.37890625 5.13671875 7.5625 7.6875 C7.79802909 10.83543683 8.14039782 13.64798995 8.8125 16.75 C9.06031456 21.04545231 7.63009495 22.69359491 5 26 C4.34 26.99 3.68 27.98 3 29 C3.226875 29.61875 3.45375 30.2375 3.6875 30.875 C4 33 4 33 2.0625 35.75 C-1.33423342 38.24555925 -2.9642523 38.74066748 -7.0625 38.5078125 C-10.30198608 37.65875365 -11.96965111 35.53793611 -14 33 C-13.67 32.01 -13.34 31.02 -13 30 C-12.67 30.99 -12.34 31.98 -12 33 C-11.34 33 -10.68 33 -10 33 C-9.67 32.34 -9.34 31.68 -9 31 C-8.87625 31.639375 -8.7525 32.27875 -8.625 32.9375 C-8.41875 33.618125 -8.2125 34.29875 -8 35 C-7.34 35.33 -6.68 35.66 -6 36 C-6 35.01 -6 34.02 -6 33 C-5.34 33 -4.68 33 -4 33 C-4 33.99 -4 34.98 -4 36 C-1.48916886 34.74458443 -1.12874554 33.49936512 0 31 C0 31.66 0 32.32 0 33 C0.66 33 1.32 33 2 33 C1.2236068 29.9254644 1.2236068 29.9254644 -1 28 C-0.21625 27.4225 0.5675 26.845 1.375 26.25 C4.49925479 23.61358712 4.49925479 23.61358712 6 20 C5.8685564 16.3195793 5.51642864 13.83077652 3.5625 10.6875 C-0.30788483 8.13870999 -4.46627562 7.65756308 -9 7 C-8 5 -8 5 -5.625 4.0625 C-2.96475626 3.21157699 -2.96475626 3.21157699 -1.5 1.3125 C-1.005 0.879375 -0.51 0.44625 0 0 Z " fill="#0A0200" transform="translate(19,0)"/>
<path d="M0 0 C0 0.66 0 1.32 0 2 C-0.78375 2.45375 -1.5675 2.9075 -2.375 3.375 C-5.22945603 5.14204421 -6.11186247 5.80270489 -7 9 C-6.86627911 12.74418495 -6.68480187 15.13194129 -4.3359375 18.109375 C-1.51651355 20.39131679 0.72144971 20.98292385 4.25 21.75 C5.86648438 22.11351562 5.86648438 22.11351562 7.515625 22.484375 C8.33546875 22.65453125 9.1553125 22.8246875 10 23 C10.33 24.32 10.66 25.64 11 27 C10.34 27 9.68 27 9 27 C8.34 27.99 7.68 28.98 7 30 C6.34 30 5.68 30 5 30 C5 29.01 5 28.02 5 27 C4.34 27 3.68 27 3 27 C3 27.99 3 28.98 3 30 C2.01 29.67 1.02 29.34 0 29 C-0.33 28.34 -0.66 27.68 -1 27 C-1.66 27 -2.32 27 -3 27 C-3.2475 26.113125 -3.495 25.22625 -3.75 24.3125 C-4.80672589 20.95256421 -4.80672589 20.95256421 -7.0625 18.5625 C-9.56591771 15.25152819 -10 13.13830961 -10 9 C-7.92100619 4.99601192 -5.01288438 0 0 0 Z " fill="#080000" transform="translate(10,6)"/>
<path d="M0 0 C0.33 0.66 0.66 1.32 1 2 C0.62746094 2.45890625 0.25492188 2.9178125 -0.12890625 3.390625 C-0.60199219 4.00421875 -1.07507813 4.6178125 -1.5625 5.25 C-2.03816406 5.85328125 -2.51382812 6.4565625 -3.00390625 7.078125 C-4.27201104 9.5248213 -3.70654714 10.42318103 -3 13 C-4.96719866 15.79215293 -6.5386947 17.62952823 -9.94140625 18.4921875 C-14.18056656 18.76568171 -15.62962029 18.30864976 -19 15.5 C-19.66 14.675 -20.32 13.85 -21 13 C-20.67 12.01 -20.34 11.02 -20 10 C-19.67 10.99 -19.34 11.98 -19 13 C-18.34 13 -17.68 13 -17 13 C-16.67 12.34 -16.34 11.68 -16 11 C-15.87625 11.639375 -15.7525 12.27875 -15.625 12.9375 C-15.41875 13.618125 -15.2125 14.29875 -15 15 C-14.34 15.33 -13.68 15.66 -13 16 C-13 15.01 -13 14.02 -13 13 C-12.34 13 -11.68 13 -11 13 C-11 13.99 -11 14.98 -11 16 C-8.48916886 14.74458443 -8.12874554 13.49936512 -7 11 C-7 11.66 -7 12.32 -7 13 C-6.34 13 -5.68 13 -5 13 C-5.7763932 9.9254644 -5.7763932 9.9254644 -8 8 C-7.236875 7.4225 -6.47375 6.845 -5.6875 6.25 C-3.33799083 4.28296907 -1.70676495 2.51523256 0 0 Z " fill="#080000" transform="translate(26,20)"/>
<path d="M0 0 C3.96 0 7.92 0 12 0 C12.33 1.32 12.66 2.64 13 4 C12.34 4 11.68 4 11 4 C10.01 5.485 10.01 5.485 9 7 C8.34 7 7.68 7 7 7 C7 6.01 7 5.02 7 4 C6.34 4 5.68 4 5 4 C5 4.99 5 5.98 5 7 C4.01 6.67 3.02 6.34 2 6 C1.67 5.34 1.34 4.68 1 4 C0.34 4 -0.32 4 -1 4 C-0.67 2.68 -0.34 1.36 0 0 Z " fill="#E0C0BF" transform="translate(8,29)"/>
<path d="M0 0 C4.875 0.875 4.875 0.875 6 2 C6.04063832 3.66617115 6.042721 5.33388095 6 7 C3.36 5.68 0.72 4.36 -2 3 C-1.34 2.01 -0.68 1.02 0 0 Z " fill="#7E1409" transform="translate(19,2)"/>
<path d="M0 0 C1.65 0.33 3.3 0.66 5 1 C4.67 2.65 4.34 4.3 4 6 C2.35 5.67 0.7 5.34 -1 5 C-0.67 3.35 -0.34 1.7 0 0 Z " fill="#261F1F" transform="translate(19,16)"/>
<path d="M0 0 C1.65 0.33 3.3 0.66 5 1 C4.67 2.65 4.34 4.3 4 6 C2.35 5.67 0.7 5.34 -1 5 C-0.67 3.35 -0.34 1.7 0 0 Z " fill="#261F1F" transform="translate(5,16)"/>
<path d="M0 0 C3.96 0 7.92 0 12 0 C12.33 1.32 12.66 2.64 13 4 C12.484375 3.835 11.96875 3.67 11.4375 3.5 C7.12290849 2.61495559 3.17873852 2.60708716 -1 4 C-0.67 2.68 -0.34 1.36 0 0 Z " fill="#D6ABAA" transform="translate(8,29)"/>
<path d="M0 0 C1.65 0.33 3.3 0.66 5 1 C5 1.99 5 2.98 5 4 C3.02 4 1.04 4 -1 4 C-0.67 2.68 -0.34 1.36 0 0 Z " fill="#342E2E" transform="translate(12,19)"/>
</svg>
