<?xml version="1.0" encoding="UTF-8"?>
<svg version="1.1" xmlns="http://www.w3.org/2000/svg" width="39" height="39">
<path d="M0 0 C0.70125 -0.185625 1.4025 -0.37125 2.125 -0.5625 C4.71706035 -1.16731408 5.75126798 -0.33518464 8 1 C9.051875 1.4640625 9.051875 1.4640625 10.125 1.9375 C13.00220329 3.5679152 13.93297878 5.84126552 15.1875 8.8125 C16.35953669 13.41049009 15.89562705 16.46997046 13.5 20.5625 C13.005 21.366875 12.51 22.17125 12 23 C11.62331656 24.65740715 11.27942455 26.32345271 11 28 C10 29 10 29 6.9375 29.0625 C5.968125 29.041875 4.99875 29.02125 4 29 C4.268125 29.556875 4.53625 30.11375 4.8125 30.6875 C5 33 5 33 3.0625 35.75 C-0.32898342 38.24170211 -1.96354847 38.75638397 -6.05859375 38.4921875 C-9.4613053 37.62952823 -11.03280134 35.79215293 -13 33 C-12.8125 30.6875 -12.8125 30.6875 -12 29 C-13.98 29 -15.96 29 -18 29 C-18.268125 28.154375 -18.53625 27.30875 -18.8125 26.4375 C-19.94128517 22.94086445 -19.94128517 22.94086445 -21.6875 19.5625 C-23.27074156 15.26513005 -23.37964485 13.36887535 -22 9 C-16.99952945 1.52603465 -16.99952945 1.52603465 -12.38671875 0.3125 C-11.20529297 0.1578125 -11.20529297 0.1578125 -10 0 C-9.360625 -0.20625 -8.72125 -0.4125 -8.0625 -0.625 C-5.24158779 -1.13789313 -2.81358574 -0.46893096 0 0 Z " fill="#010000" transform="translate(23,1)"/>
<path d="M0 0 C2.625 0.375 2.625 0.375 5 1 C4.67 3.97 4.34 6.94 4 10 C3.01 10 2.02 10 1 10 C0.67 10.99 0.34 11.98 0 13 C0.53625 12.608125 1.0725 12.21625 1.625 11.8125 C4 11 4 11 7.25 12.375 C8.1575 12.91125 9.065 13.4475 10 14 C9.01 14.66 8.02 15.32 7 16 C7 17.32 7 18.64 7 20 C8.32 20 9.64 20 11 20 C11.66 19.34 12.32 18.68 13 18 C12.69381595 21.67420866 12.24228216 22.78135513 9.4375 25.3125 C8.633125 25.869375 7.82875 26.42625 7 27 C7.66 27.66 8.32 28.32 9 29 C9 29.99 9 30.98 9 32 C8.34 32 7.68 32 7 32 C6.34 32.99 5.68 33.98 5 35 C4.34 35 3.68 35 3 35 C3 34.01 3 33.02 3 32 C2.34 32 1.68 32 1 32 C1 32.99 1 33.98 1 35 C0.01 34.67 -0.98 34.34 -2 34 C-2.33 33.34 -2.66 32.68 -3 32 C-3.66 32 -4.32 32 -5 32 C-5.33 30.68 -5.66 29.36 -6 28 C-7.65 27.67 -9.3 27.34 -11 27 C-11 25.68 -11 24.36 -11 23 C-11.495 22.4225 -11.99 21.845 -12.5 21.25 C-14.83640577 17.74539135 -14.40269022 15.16113224 -14 11 C-13.01 10.34 -12.02 9.68 -11 9 C-10.835 8.01 -10.67 7.02 -10.5 6 C-10.335 5.01 -10.17 4.02 -10 3 C-7 1 -7 1 -4.4375 1.5 C-3.2309375 1.7475 -3.2309375 1.7475 -2 2 C-1.34 1.34 -0.68 0.68 0 0 Z " fill="#000000" transform="translate(17,2)"/>
<path d="M0 0 C5.75 1.75 5.75 1.75 8 4 C7.01 4.33 6.02 4.66 5 5 C5 6.32 5 7.64 5 9 C6.32 9 7.64 9 9 9 C9.66 8.34 10.32 7.68 11 7 C10.79570164 10.6773705 10.22067989 11.80084985 7.4375 14.3125 C3.37572526 16.30646215 0.43825918 16.91583126 -4 16 C-6.29501486 14.87194185 -7.98392717 13.61285827 -10 12 C-9.67 11.01 -9.34 10.02 -9 9 C-7.68 9 -6.36 9 -5 9 C-5 7.68 -5 6.36 -5 5 C-6.32 4.34 -7.64 3.68 -9 3 C-7.88625 2.87625 -6.7725 2.7525 -5.625 2.625 C-1.96896323 2.3534187 -1.96896323 2.3534187 0 0 Z " fill="#D9B9B8" transform="translate(19,13)"/>
<path d="M0 0 C0 1.98 0 3.96 0 6 C-0.66 6 -1.32 6 -2 6 C-1.01 8.64 -0.02 11.28 1 14 C0.05125 13.79375 -0.8975 13.5875 -1.875 13.375 C-2.90625 13.25125 -3.9375 13.1275 -5 13 C-5.66 13.66 -6.32 14.32 -7 15 C-7.99 14.67 -8.98 14.34 -10 14 C-9.54625 13.5875 -9.0925 13.175 -8.625 12.75 C-6.94049626 10.93591905 -6.00734029 9.24714373 -5 7 C-4.67 7.99 -4.34 8.98 -4 10 C-3.34 7.36 -2.68 4.72 -2 2 C-5.71736641 1.65099442 -5.71736641 1.65099442 -8.8125 3.5 C-9.204375 3.995 -9.59625 4.49 -10 5 C-10.33 4.34 -10.66 3.68 -11 3 C-12.65 3.33 -14.3 3.66 -16 4 C-16.33 6.31 -16.66 8.62 -17 11 C-17.99 11.33 -18.98 11.66 -20 12 C-20.43177893 18.26079448 -19.92739438 21.09075703 -16 26 C-16.66 26 -17.32 26 -18 26 C-18 26.66 -18 27.32 -18 28 C-16.68 28.33 -15.36 28.66 -14 29 C-15.65 29 -17.3 29 -19 29 C-19.268125 28.154375 -19.53625 27.30875 -19.8125 26.4375 C-20.94128517 22.94086445 -20.94128517 22.94086445 -22.6875 19.5625 C-24.27074156 15.26513005 -24.37964485 13.36887535 -23 9 C-17.99889215 1.52508212 -17.99889215 1.52508212 -13.3828125 0.3125 C-12.59648437 0.209375 -11.81015625 0.10625 -11 0 C-10.38125 -0.20625 -9.7625 -0.4125 -9.125 -0.625 C-5.97561391 -1.18077402 -3.12499801 -0.54086504 0 0 Z " fill="#080501" transform="translate(24,1)"/>
<path d="M0 0 C0.99 0.33 1.98 0.66 3 1 C3.28875 2.134375 3.5775 3.26875 3.875 4.4375 C4.24625 5.613125 4.6175 6.78875 5 8 C8.57358281 9.84132543 12.41899502 10.68371308 16.3125 11.625 C17.38113281 11.88539062 18.44976563 12.14578125 19.55078125 12.4140625 C20.76314453 12.70410156 20.76314453 12.70410156 22 13 C22.33 14.32 22.66 15.64 23 17 C22.34 17 21.68 17 21 17 C20.34 17.99 19.68 18.98 19 20 C18.34 20 17.68 20 17 20 C17 19.01 17 18.02 17 17 C16.34 17 15.68 17 15 17 C15 17.99 15 18.98 15 20 C14.01 19.67 13.02 19.34 12 19 C11.67 18.34 11.34 17.68 11 17 C10.34 17 9.68 17 9 17 C8.67 15.68 8.34 14.36 8 13 C6.35 12.67 4.7 12.34 3 12 C3 10.68 3 9.36 3 8 C2.505 7.34 2.01 6.68 1.5 6 C0 4 0 4 0 0 Z " fill="#291906" transform="translate(3,17)"/>
<path d="M0 0 C1.04449911 3.13349732 0.93423645 3.98968256 0 7 C0.66 7 1.32 7 2 7 C2.33 5.68 2.66 4.36 3 3 C3.66 4.32 4.32 5.64 5 7 C3 9 3 9 -0.125 9.125 C-1.07375 9.08375 -2.0225 9.0425 -3 9 C-2.731875 9.556875 -2.46375 10.11375 -2.1875 10.6875 C-2 13 -2 13 -3.9375 15.75 C-7.33423342 18.24555925 -8.9642523 18.74066748 -13.0625 18.5078125 C-16.30198608 17.65875365 -17.96965111 15.53793611 -20 13 C-19.67 12.01 -19.34 11.02 -19 10 C-18.67 10.99 -18.34 11.98 -18 13 C-17.34 13 -16.68 13 -16 13 C-15.67 12.34 -15.34 11.68 -15 11 C-14.87625 11.639375 -14.7525 12.27875 -14.625 12.9375 C-14.41875 13.618125 -14.2125 14.29875 -14 15 C-13.34 15.33 -12.68 15.66 -12 16 C-12 15.01 -12 14.02 -12 13 C-11.34 13 -10.68 13 -10 13 C-10 13.99 -10 14.98 -10 16 C-7.48916886 14.74458443 -7.12874554 13.49936512 -6 11 C-6 11.66 -6 12.32 -6 13 C-5.34 13 -4.68 13 -4 13 C-4.7763932 9.9254644 -4.7763932 9.9254644 -7 8 C-6.21625 7.4225 -5.4325 6.845 -4.625 6.25 C-2.19952756 4.17102363 -1.14305583 2.90959667 0 0 Z " fill="#050000" transform="translate(30,21)"/>
<path d="M0 0 C5.75 1.75 5.75 1.75 8 4 C7.01 4.33 6.02 4.66 5 5 C3.79117904 7.00016466 3.79117904 7.00016466 3 9 C1.35 8.67 -0.3 8.34 -2 8 C-3.98 10.97 -3.98 10.97 -6 14 C-7.32 13.34 -8.64 12.68 -10 12 C-9.67 11.01 -9.34 10.02 -9 9 C-7.68 9 -6.36 9 -5 9 C-5 7.68 -5 6.36 -5 5 C-6.32 4.34 -7.64 3.68 -9 3 C-7.88625 2.87625 -6.7725 2.7525 -5.625 2.625 C-1.96896323 2.3534187 -1.96896323 2.3534187 0 0 Z " fill="#CBB7B7" transform="translate(19,13)"/>
<path d="M0 0 C1.9375 0.375 1.9375 0.375 4 1 C4.33 1.66 4.66 2.32 5 3 C5 2.34 5 1.68 5 1 C5.66 1 6.32 1 7 1 C7.76117972 3.36811467 8.10804045 4.6434665 7.375 7.0625 C7.25125 7.701875 7.1275 8.34125 7 9 C8.39588754 10.64594139 8.39588754 10.64594139 10 12 C10 12.66 10 13.32 10 14 C7.42786866 15.61949011 6.32330841 16.04408751 3.25 15.625 C2.13625 15.315625 2.13625 15.315625 1 15 C1.165 14.236875 1.33 13.47375 1.5 12.6875 C2.24453809 8.68560777 2.31949505 7.47924258 0 4 C0 2.68 0 1.36 0 0 Z " fill="#281514" transform="translate(22,7)"/>
<path d="M0 0 C2.625 0.375 2.625 0.375 5 1 C4.67 3.97 4.34 6.94 4 10 C3.01 10 2.02 10 1 10 C0.01 11.485 0.01 11.485 -1 13 C-2.65 12.67 -4.3 12.34 -6 12 C-5.67 11.01 -5.34 10.02 -5 9 C-4.34 9.33 -3.68 9.66 -3 10 C-3 9.34 -3 8.68 -3 8 C-2.28571429 2.28571429 -2.28571429 2.28571429 0 0 Z " fill="#D5B03D" transform="translate(17,2)"/>
<path d="M0 0 C0.8971875 0.309375 0.8971875 0.309375 1.8125 0.625 C1.8125 1.285 1.8125 1.945 1.8125 2.625 C0.8225 3.12 0.8225 3.12 -0.1875 3.625 C-1.09475434 5.73827425 -1.09475434 5.73827425 -1.8125 8.1875 C-2.20308594 9.42693359 -2.20308594 9.42693359 -2.6015625 10.69140625 C-2.79492188 11.32949219 -2.98828125 11.96757812 -3.1875 12.625 C-4.8375 12.955 -6.4875 13.285 -8.1875 13.625 C-8.5175 12.305 -8.8475 10.985 -9.1875 9.625 C-8.1975 8.965 -7.2075 8.305 -6.1875 7.625 C-6.0225 6.635 -5.8575 5.645 -5.6875 4.625 C-5.5225 3.635 -5.3575 2.645 -5.1875 1.625 C-2.1875 -0.375 -2.1875 -0.375 0 0 Z " fill="#DAB943" transform="translate(12.1875,3.375)"/>
<path d="M0 0 C3.96 0 7.92 0 12 0 C12.33 1.32 12.66 2.64 13 4 C12.34 4 11.68 4 11 4 C10.01 5.485 10.01 5.485 9 7 C8.34 7 7.68 7 7 7 C7 6.01 7 5.02 7 4 C6.34 4 5.68 4 5 4 C5 4.99 5 5.98 5 7 C4.01 6.67 3.02 6.34 2 6 C1.67 5.34 1.34 4.68 1 4 C0.34 4 -0.32 4 -1 4 C-0.67 2.68 -0.34 1.36 0 0 Z " fill="#E0C0BF" transform="translate(13,30)"/>
<path d="M0 0 C-0.50603992 2.16874252 -0.99983813 3.99967627 -2 6 C-3.65 6 -5.3 6 -7 6 C-7.66 4.35 -8.32 2.7 -9 1 C-5.64919071 -1.10976881 -3.77897651 -1.0497157 0 0 Z " fill="#C8A236" transform="translate(37,13)"/>
<path d="M0 0 C0.66 0.33 1.32 0.66 2 1 C2.60728509 3.46962605 2.95743178 5.94350793 3.33984375 8.45703125 C4.06345531 11.24443435 5.14276102 12.82900403 7 15 C6.34 15 5.68 15 5 15 C5 15.66 5 16.32 5 17 C6.32 17.33 7.64 17.66 9 18 C7.35 18 5.7 18 4 18 C3.731875 17.154375 3.46375 16.30875 3.1875 15.4375 C2.04495811 11.92680683 2.04495811 11.92680683 0.3125 8.4375 C-1.03301557 4.91353065 -1.16865819 3.50597456 0 0 Z " fill="#000000" transform="translate(1,12)"/>
<path d="M0 0 C1.65 0 3.3 0 5 0 C5.33 1.65 5.66 3.3 6 5 C1.25 6.125 1.25 6.125 -1 5 C-0.67 3.35 -0.34 1.7 0 0 Z " fill="#382D2D" transform="translate(9,17)"/>
<path d="M0 0 C2.0625 0.4375 2.0625 0.4375 4 1 C3 4 3 4 1 6 C0.67 6.99 0.34 7.98 0 9 C-0.99 8.67 -1.98 8.34 -3 8 C-1.125 1.125 -1.125 1.125 0 0 Z " fill="#8F6B1F" transform="translate(32,20)"/>
<path d="M0 0 C3.96 0 7.92 0 12 0 C12.33 1.32 12.66 2.64 13 4 C12.484375 3.835 11.96875 3.67 11.4375 3.5 C7.12290849 2.61495559 3.17873852 2.60708716 -1 4 C-0.67 2.68 -0.34 1.36 0 0 Z " fill="#D6ABAA" transform="translate(13,30)"/>
<path d="M0 0 C1.67542976 0.28604898 3.34385343 0.61781233 5 1 C5 2.32 5 3.64 5 5 C3.35 5 1.7 5 0 5 C-0.5625 3.0625 -0.5625 3.0625 -1 1 C-0.67 0.67 -0.34 0.34 0 0 Z " fill="#D6B23D" transform="translate(24,2)"/>
<path d="M0 0 C0.99 0.33 1.98 0.66 3 1 C3.94921875 3.06640625 3.94921875 3.06640625 4.6875 5.5625 C4.93886719 6.38878906 5.19023437 7.21507812 5.44921875 8.06640625 C5.63097656 8.70449219 5.81273437 9.34257812 6 10 C2.64888166 7.76592111 1.18446044 6.73784176 0.1875 2.75 C0.125625 1.8425 0.06375 0.935 0 0 Z " fill="#C8992D" transform="translate(3,17)"/>
<path d="M0 0 C1.32 0 2.64 0 4 0 C4.33 1.32 4.66 2.64 5 4 C3.35 4.33 1.7 4.66 0 5 C-0.5625 3.0625 -0.5625 3.0625 -1 1 C-0.67 0.67 -0.34 0.34 0 0 Z " fill="#B18C2D" transform="translate(4,12)"/>
<path d="M0 0 C1.32 0.33 2.64 0.66 4 1 C4.33 2.65 4.66 4.3 5 6 C3.68 6 2.36 6 1 6 C0.67 4.02 0.34 2.04 0 0 Z " fill="#94231D" transform="translate(22,7)"/>
<path d="M0 0 C1.65 0.33 3.3 0.66 5 1 C5 1.99 5 2.98 5 4 C3.02 4 1.04 4 -1 4 C-0.67 2.68 -0.34 1.36 0 0 Z " fill="#342E2E" transform="translate(17,20)"/>
<path d="M0 0 C2.475 0.495 2.475 0.495 5 1 C4.67 2.32 4.34 3.64 4 5 C2.68 5 1.36 5 0 5 C0 3.35 0 1.7 0 0 Z " fill="#8F6D1F" transform="translate(32,12)"/>
<path d="M0 0 C1.5625 1.25 1.5625 1.25 3 3 C2.6875 5.1875 2.6875 5.1875 2 7 C1.01 7 0.02 7 -1 7 C-1 6.34 -1 5.68 -1 5 C-1.33 4.67 -1.66 4.34 -2 4 C-1.34 2.68 -0.68 1.36 0 0 Z " fill="#96241E" transform="translate(32,4)"/>
<path d="M0 0 C0.66 0 1.32 0 2 0 C2.33 2.31 2.66 4.62 3 7 C1.68 6.67 0.36 6.34 -1 6 C-1.042721 4.33388095 -1.04063832 2.66617115 -1 1 C-0.67 0.67 -0.34 0.34 0 0 Z " fill="#64450D" transform="translate(12,6)"/>
<path d="M0 0 C0.33 0.99 0.66 1.98 1 3 C-0.3125 5.1875 -0.3125 5.1875 -2 7 C-2.66 7 -3.32 7 -4 7 C-4 5.68 -4 4.36 -4 3 C-3.01 2.67 -2.02 2.34 -1 2 C-0.67 1.34 -0.34 0.68 0 0 Z " fill="#9AA7A9" transform="translate(29,20)"/>
</svg>
